<svg width="24" height="24" viewBox="0 0 24 24" fill="none" xmlns="http://www.w3.org/2000/svg">
<path fill-rule="evenodd" clip-rule="evenodd" d="M18.2929 4.29297L21.0857 1.50015L22.4999 2.91436L19.7071 5.70718L18.2929 4.29297Z" fill="#FA3AA9" style="fill:#FA3AA9;fill:color(display-p3 0.9804 0.2275 0.6627);fill-opacity:1;"/>
<path d="M11.4278 4.43523C13.6748 2.18842 17.3178 2.18842 19.5648 4.43523C21.8117 6.682 21.8118 10.3247 19.5649 12.5716L17.5769 14.5609L9.43945 6.4248L11.4278 4.43523Z" fill="#FA3AA9" style="fill:#FA3AA9;fill:color(display-p3 0.9804 0.2275 0.6627);fill-opacity:1;"/>
<path d="M12.5724 19.5648C10.3254 21.8116 6.68221 21.8118 4.43525 19.565C2.18831 17.3182 2.18825 13.6755 4.43506 11.4287L6.42314 9.43933L14.5605 17.5754L12.5724 19.5648Z" fill="#FA3AA9" style="fill:#FA3AA9;fill:color(display-p3 0.9804 0.2275 0.6627);fill-opacity:1;"/>
<path fill-rule="evenodd" clip-rule="evenodd" d="M1.50006 21.0858L4.29303 18.293L5.70724 19.7072L2.91427 22.5L1.50006 21.0858Z" fill="#FA3AA9" style="fill:#FA3AA9;fill:color(display-p3 0.9804 0.2275 0.6627);fill-opacity:1;"/>
<path fill-rule="evenodd" clip-rule="evenodd" d="M12.7071 8.70718L10.2071 11.2072L8.79291 9.79297L11.2929 7.29297L12.7071 8.70718ZM16.7071 12.7072L14.2071 15.2072L12.7929 13.793L15.2929 11.293L16.7071 12.7072Z" fill="#FA3AA9" style="fill:#FA3AA9;fill:color(display-p3 0.9804 0.2275 0.6627);fill-opacity:1;"/>
</svg>
