<svg width="121" height="27" viewBox="0 0 121 27" fill="none" xmlns="http://www.w3.org/2000/svg">
<path d="M37.0337 9.23508H41.8456V11H33.9367V9.60138L36.8672 7.1871C38.4989 5.82178 39.398 4.98927 39.398 3.72385C39.398 2.75814 38.8985 2.05883 37.7663 2.05883C36.6008 2.05883 36.018 2.85804 36.018 4.07351C36.018 4.42316 36.0513 4.70622 36.1346 4.98927L34.0699 4.90602C34.0033 4.57302 33.9534 4.24001 33.9534 3.92366C33.9534 1.72583 35.5019 0.310559 37.8162 0.310559C40.3138 0.310559 41.5792 1.74248 41.5792 3.6073C41.5792 5.45548 40.2805 6.63764 38.6987 7.90306L37.0337 9.23508ZM42.3539 3.4408V2.07548C43.8192 2.07548 44.4852 1.57598 44.8681 0.477061H46.3999V11H44.3187V3.4408H42.3539ZM47.8204 8.56907L49.552 8.50247C49.6686 9.38493 50.3346 9.83448 51.3503 9.83448C52.0829 9.83448 52.6823 9.58473 52.6823 9.05192C52.6823 8.55242 52.3493 8.33596 51.6167 8.21941L50.4511 8.01961C48.886 7.76986 48.0202 7.1871 48.0202 5.82178C48.0202 4.42316 49.2024 3.45745 51.0672 3.45745C53.0985 3.45745 54.314 4.37321 54.4472 6.00493L52.7988 6.07154C52.6656 5.23902 52.0995 4.82277 51.0506 4.82277C50.3346 4.82277 49.8684 5.13912 49.8684 5.63863C49.8684 6.03823 50.1348 6.27134 50.6676 6.35459L52.0662 6.58769C53.6147 6.83745 54.5305 7.4868 54.5305 8.86877C54.5305 10.3673 53.2317 11.1998 51.3336 11.1998C49.4188 11.1998 47.9536 10.3673 47.8204 8.56907ZM56.0338 9.13518V5.05587H54.9848V3.87371L55.4843 3.79045C56.2003 3.6739 56.4001 3.3076 56.5666 2.62494L56.7997 1.62593H58.0152V3.65725H60.0132V5.05587H58.0152V8.68562C58.0152 9.31833 58.2982 9.60138 58.8976 9.60138C59.2972 9.60138 59.7135 9.45153 60.1464 9.25173V10.5671C59.6136 10.9667 59.0142 11.1998 58.1151 11.1998C56.9828 11.1998 56.0338 10.7003 56.0338 9.13518ZM63.8555 5.75518C63.8555 2.52504 66.1366 0.310559 69.117 0.310559C72.2139 0.310559 73.9289 2.25863 74.112 4.90602L72.114 4.98927C71.9641 3.42415 71.0317 2.14208 69.117 2.14208C67.2521 2.14208 66.02 3.5407 66.02 5.75518C66.02 7.96966 67.2521 9.36828 69.117 9.36828C71.0317 9.36828 71.9641 8.08621 72.114 6.52109L74.112 6.60434C73.9289 9.26838 72.2139 11.1998 69.117 11.1998C66.1366 11.1998 63.8555 8.98532 63.8555 5.75518ZM80.8041 8.43587L82.4192 8.60237C82.0362 10.2341 80.7708 11.1998 78.8893 11.1998C76.6249 11.1998 74.9932 9.75123 74.9932 7.43685C74.9932 5.12247 76.6416 3.45745 78.8394 3.45745C81.237 3.45745 82.4691 5.12247 82.4691 7.1205V7.83646H76.9579C77.0245 8.91872 77.8737 9.68463 78.9559 9.68463C79.9383 9.68463 80.5211 9.26838 80.8041 8.43587ZM76.9912 6.58769H80.5211C80.4545 5.73853 79.9383 4.92267 78.8227 4.92267C77.7238 4.92267 77.1744 5.67193 76.9912 6.58769ZM85.7492 7.07055V11H83.7512V3.65725H85.7492V4.85607C86.1155 4.02356 87.0479 3.45745 88.1469 3.45745C90.1116 3.45745 90.8275 4.78947 90.8275 6.42119V11H88.8295V6.82079C88.8295 5.68858 88.38 5.03922 87.3976 5.03922C86.3819 5.03922 85.7492 5.83843 85.7492 7.07055ZM92.6838 9.13518V5.05587H91.6348V3.87371L92.1343 3.79045C92.8503 3.6739 93.0501 3.3076 93.2166 2.62494L93.4497 1.62593H94.6652V3.65725H96.6632V5.05587H94.6652V8.68562C94.6652 9.31833 94.9482 9.60138 95.5476 9.60138C95.9472 9.60138 96.3635 9.45153 96.7964 9.25173V10.5671C96.2636 10.9667 95.6642 11.1998 94.7651 11.1998C93.6328 11.1998 92.6838 10.7003 92.6838 9.13518ZM102.825 7.5867V3.65725H104.823V11H102.825V9.80118C102.442 10.6503 101.576 11.1998 100.461 11.1998C98.5127 11.1998 97.8466 9.88444 97.8466 8.25271V3.65725H99.8447V7.85311C99.8447 8.96867 100.261 9.63468 101.243 9.63468C102.226 9.63468 102.825 8.83547 102.825 7.5867ZM111.593 3.75715L111.444 5.62198C111.061 5.40553 110.728 5.30562 110.245 5.30562C109.213 5.30562 108.513 6.03823 108.513 7.37025V11H106.515V3.65725H108.513V5.05587C108.78 4.22336 109.546 3.45745 110.561 3.45745C111.011 3.45745 111.377 3.574 111.593 3.75715ZM115.774 13.7306H113.81L114.942 11.0333L111.895 3.65725H113.993L115.991 8.66897H116.057L118.039 3.65725H119.987L115.774 13.7306Z" fill="#292929" style="fill:#292929;fill:color(display-p3 0.1608 0.1608 0.1608);fill-opacity:1;"/>
<path d="M37.702 26.344H36.628V19.3759H33.7684V18.4768H40.6116V19.3759H37.702V26.344ZM47.2406 25.4449V26.344H41.6336V18.4768H47.1282V19.3759H42.6826V21.8484H46.2166V22.735H42.6826V25.4449H47.2406ZM47.7714 22.4104C47.7714 19.9878 49.4573 18.3269 51.6301 18.3269C53.8779 18.3269 55.1516 19.713 55.3015 21.736L54.2525 21.786C54.1651 20.3374 53.2535 19.251 51.6301 19.251C50.0317 19.251 48.8828 20.4748 48.8828 22.4104C48.8828 24.346 50.0317 25.5697 51.6301 25.5697C53.2535 25.5697 54.1651 24.4833 54.2525 23.0347L55.3015 23.0847C55.1516 25.1077 53.8779 26.4938 51.6301 26.4938C49.4573 26.4938 47.7714 24.833 47.7714 22.4104ZM57.537 26.344H56.4506V18.4768H57.537V21.8484H62.0575V18.4768H63.1439V26.344H62.0575V22.735H57.537V26.344ZM65.7939 18.4768L70.1021 24.4958V18.4768H71.1136V26.344H70.252L65.6815 20.0252V26.344H64.67V18.4768H65.7939ZM80.0884 22.4104C80.0884 24.833 78.465 26.4938 76.1798 26.4938C73.8821 26.4938 72.2712 24.833 72.2712 22.4104C72.2712 19.9878 73.8821 18.3269 76.1798 18.3269C78.465 18.3269 80.0884 19.9878 80.0884 22.4104ZM78.9645 22.4104C78.9645 20.4873 77.8781 19.251 76.1798 19.251C74.4815 19.251 73.3826 20.4873 73.3826 22.4104C73.3826 24.3335 74.4815 25.5697 76.1798 25.5697C77.8781 25.5697 78.9645 24.3335 78.9645 22.4104ZM81.243 18.4768H82.3294V25.4449H86.7125V26.344H81.243V18.4768ZM94.7224 22.4104C94.7224 24.833 93.099 26.4938 90.8138 26.4938C88.516 26.4938 86.9051 24.833 86.9051 22.4104C86.9051 19.9878 88.516 18.3269 90.8138 18.3269C93.099 18.3269 94.7224 19.9878 94.7224 22.4104ZM93.5985 22.4104C93.5985 20.4873 92.5121 19.251 90.8138 19.251C89.1154 19.251 88.0165 20.4873 88.0165 22.4104C88.0165 24.3335 89.1154 25.5697 90.8138 25.5697C92.5121 25.5697 93.5985 24.3335 93.5985 22.4104ZM99.3607 26.4938C97.1379 26.4938 95.527 24.8579 95.527 22.4104C95.527 19.9878 97.2003 18.3269 99.3732 18.3269C101.596 18.3269 102.882 19.5632 103.02 21.5737L101.983 21.6361C101.896 20.2 100.972 19.251 99.3857 19.251C97.7748 19.251 96.6384 20.4748 96.6384 22.4229C96.6384 24.3709 97.7873 25.5822 99.4856 25.5822C100.959 25.5822 101.908 24.6581 102.046 23.3095H99.6479V22.4603H103.032V26.344H102.046V24.9454C101.696 25.9444 100.584 26.4938 99.3607 26.4938ZM104.487 18.4768H105.573V26.344H104.487V18.4768ZM112.703 25.4449V26.344H107.096V18.4768H112.591V19.3759H108.145V21.8484H111.679V22.735H108.145V25.4449H112.703ZM113.329 23.5343L114.303 23.4718C114.365 24.9079 115.352 25.6447 116.675 25.6447C117.849 25.6447 118.586 25.1452 118.586 24.2835C118.586 23.5592 118.112 23.2096 117.088 23.0098L115.527 22.7101C114.365 22.4853 113.566 21.8609 113.566 20.6371C113.566 19.2635 114.652 18.3269 116.376 18.3269C118.349 18.3269 119.485 19.3759 119.498 21.1491L118.511 21.1991C118.474 19.9003 117.687 19.1636 116.388 19.1636C115.252 19.1636 114.615 19.7005 114.615 20.5747C114.615 21.3489 115.127 21.5987 116.039 21.7735L117.462 22.0482C118.898 22.323 119.623 22.9473 119.623 24.2086C119.623 25.6572 118.374 26.4938 116.675 26.4938C114.74 26.4938 113.329 25.4324 113.329 23.5343Z" fill="#525252" style="fill:#525252;fill:color(display-p3 0.3216 0.3216 0.3216);fill-opacity:1;"/>
<rect width="8.09427" height="8.09427" transform="translate(0 13.4873) rotate(-45)" fill="#7EBA03" style="fill:#7EBA03;fill:color(display-p3 0.4941 0.7294 0.0118);fill-opacity:1;"/>
<rect width="8.09427" height="8.09427" transform="translate(6.76367 20.252) rotate(-45)" fill="#02A4EE" style="fill:#02A4EE;fill:color(display-p3 0.0078 0.6431 0.9333);fill-opacity:1;"/>
<rect width="8.09427" height="8.09427" transform="translate(6.76367 6.72363) rotate(-45)" fill="#EC268F" style="fill:#EC268F;fill:color(display-p3 0.9255 0.1490 0.5608);fill-opacity:1;"/>
<rect width="8.09427" height="8.09427" transform="translate(13.5283 13.4873) rotate(-45)" fill="white" style="fill:white;fill-opacity:1;"/>
</svg>
